<svg id="SvgjsSvg1001" width="288" height="288" xmlns="http://www.w3.org/2000/svg" version="1.1" xmlns:xlink="http://www.w3.org/1999/xlink" xmlns:svgjs="http://svgjs.com/svgjs"><defs id="SvgjsDefs1002"></defs><g id="SvgjsG1008"><svg xmlns="http://www.w3.org/2000/svg" data-name="Layer 1" viewBox="0 0 512 512" width="288" height="288"><defs><clipPath id="a"><rect width="512" height="512" x="580.54" fill="none"></rect></clipPath><clipPath id="b"><rect width="512" height="512" fill="none"></rect></clipPath></defs><g clip-path="url(#a)" fill="#000000" class="color000 svgShape"><path fill="#c51a77" style="isolation:isolate" d="M505.14,630.8S594.74,414.9,800,388.1s184.1-186,184.1-186S948.54-64.1,1332-13.9,1500.24,705,1500.24,705L863.64,846.2Z" opacity=".5" class="colora5a5db svgShape"></path></g><g clip-path="url(#a)" fill="#000000" class="color000 svgShape"><path fill="#c51a77" style="isolation:isolate" d="M787.74,1431.5s-414-277.4-389.1-415.9-62-346.9,310.1-605.6S1171,515.7,1171,515.7s-239.4,828.6-264.8,816.7S787.74,1431.5,787.74,1431.5Z" opacity=".5" class="colora5a5db svgShape"></path></g><g clip-path="url(#a)" fill="#000000" class="color000 svgShape"><path fill="#8c165a" d="M391.14,683.3s222-252.8,416.9-280.4,447.2-67.8,438-259.6,282.6,625.6,282.6,625.6-848.2,140.7-854.2,140.9S391.14,683.3,391.14,683.3Z" class="color837fcb svgShape"></path></g><g clip-path="url(#b)" fill="#000000" class="color000 svgShape"><path fill="#830f50" style="isolation:isolate" d="M-75.4,630.8S14.2,414.9,219.5,388.1s184.1-186,184.1-186S368-64.1,751.5-13.9,919.7,705,919.7,705L283.1,846.2Z" opacity=".5" class="colorb1b1f2 svgShape"></path></g><g clip-path="url(#b)" fill="#000000" class="color000 svgShape"><path fill="#830f50" style="isolation:isolate" d="M207.2,1431.5s-414-277.4-389.1-415.9-62-346.9,310.1-605.6S590.5,515.7,590.5,515.7s-239.4,828.6-264.8,816.7S207.2,1431.5,207.2,1431.5Z" opacity=".5" class="colorb1b1f2 svgShape"></path></g><g clip-path="url(#b)" fill="#000000" class="color000 svgShape"><path fill="#830f50" d="M-189.4,683.3s222-252.8,416.9-280.4,447.2-67.8,438-259.6S948.1,768.9,948.1,768.9,99.9,909.6,93.9,909.8-189.4,683.3-189.4,683.3Z" class="color8c8cf9 svgShape"></path></g></svg></g></svg>