<svg class="vue-barcode-element" width="222px" height="67px" x="0px" y="0px" viewBox="0 0 222 67" xmlns="http://www.w3.org/2000/svg" version="1.1" style="transform: translate(0,0)"><rect x="0" y="0" width="222" height="67" style="fill:#ffffff;"></rect><g transform="translate(10, 10)" style="fill:#000000;"><rect x="0" y="0" width="4" height="25"></rect><rect x="6" y="0" width="2" height="25"></rect><rect x="12" y="0" width="2" height="25"></rect><rect x="22" y="0" width="4" height="25"></rect><rect x="28" y="0" width="6" height="25"></rect><rect x="36" y="0" width="2" height="25"></rect><rect x="44" y="0" width="2" height="25"></rect><rect x="52" y="0" width="4" height="25"></rect><rect x="58" y="0" width="6" height="25"></rect><rect x="66" y="0" width="2" height="25"></rect><rect x="70" y="0" width="2" height="25"></rect><rect x="76" y="0" width="4" height="25"></rect><rect x="88" y="0" width="2" height="25"></rect><rect x="92" y="0" width="6" height="25"></rect><rect x="100" y="0" width="8" height="25"></rect><rect x="110" y="0" width="4" height="25"></rect><rect x="120" y="0" width="2" height="25"></rect><rect x="126" y="0" width="2" height="25"></rect><rect x="132" y="0" width="4" height="25"></rect><rect x="140" y="0" width="2" height="25"></rect><rect x="144" y="0" width="6" height="25"></rect><rect x="154" y="0" width="2" height="25"></rect><rect x="158" y="0" width="4" height="25"></rect><rect x="170" y="0" width="2" height="25"></rect><rect x="176" y="0" width="4" height="25"></rect><rect x="186" y="0" width="6" height="25"></rect><rect x="194" y="0" width="2" height="25"></rect><rect x="198" y="0" width="4" height="25"></rect><text style="font: 20px monospace" text-anchor="middle" x="101" y="47">SL_1119</text></g></svg>